C:\Users\movea\Dropbox\PhDWork\ExperimentalData\subject14\100\P14S100W03_filtered35.mot
nRows=18
nColumns=28

name C:\Users\movea\Dropbox\PhDWork\ExperimentalData\subject14\100\P14S100W03_filtered35.mot
datacolumns 28
datarows 18
range 0.5950000000 0.6120000000
endheader
time	ground_force_1_vx	ground_force_1_vy	ground_force_1_vz	ground_force_1_px	ground_force_1_py	ground_force_1_pz	ground_moment_1_mx	ground_moment_1_my	ground_moment_1_mz	ground_force_2_vx	ground_force_2_vy	ground_force_2_vz	ground_force_2_px	ground_force_2_py	ground_force_2_pz	ground_moment_2_mx	ground_moment_2_my	ground_moment_2_mz	ground_force_3_vx	ground_force_3_vy	ground_force_3_vz	ground_force_3_px	ground_force_3_py	ground_force_3_pz	ground_moment_3_mx	ground_moment_3_my	ground_moment_3_mz
        0.5950000000	       36.0435254542	      592.6695469399	       36.4767253529	        0.1988394985	        0.0000558755	       -0.3004071309	      -17.1046640159	        6.4838833447	      -33.8019146128	        0.0000000836	        0.0000010451	        0.0000001946	        0.2029003485	       -0.0000795827	        0.4543649521	        0.0000001380	       -0.0000000308	        0.0000000886	        0.0000000000	        0.0000000000	       -0.0000000000	        0.2076431961	        0.0000770316	        1.3583900146	       -0.0000000000	       -0.0000000000	       -0.0000000000	
        0.5960000000	       36.1488234708	      596.7762551784	       37.4242868438	        0.1988394985	        0.0000558755	       -0.3004071309	      -17.3882564642	        6.5894420485	      -34.0064152019	        0.0000000803	        0.0000006589	        0.0000000132	        0.2029003485	       -0.0000795827	        0.4543649521	        0.0000000890	       -0.0000000200	        0.0000000562	        0.0000000000	        0.0000000000	       -0.0000000000	        0.2076431961	        0.0000770316	        1.3583900146	       -0.0000000000	       -0.0000000000	       -0.0000000000	
        0.5970000000	       36.2432129395	      600.9207315887	       38.3856413817	        0.1988394985	        0.0000558755	       -0.3004071309	      -17.6717104078	        6.6955346232	      -34.2108536952	        0.0000000680	        0.0000000289	       -0.0000002552	        0.2029003485	       -0.0000795827	        0.4543649521	        0.0000000086	       -0.0000000023	        0.0000000033	        0.0000000000	        0.0000000000	       -0.0000000000	        0.2076431961	        0.0000770316	        1.3583900146	       -0.0000000000	       -0.0000000000	       -0.0000000000	
        0.5980000000	       36.3286011753	      605.1053555252	       39.3622453799	        0.1988394985	        0.0000558755	       -0.3004071309	      -17.9548820121	        6.8025632011	      -34.4157468725	        0.0000000437	        0.0000000000	       -0.0000006272	        0.2029003485	       -0.0000795827	        0.4543649521	       -0.0000001107	        0.0000000241	       -0.0000000750	        0.0000000000	        0.0000000000	       -0.0000000000	        0.2076431961	        0.0000770316	        1.3583900146	       -0.0000000000	       -0.0000000000	       -0.0000000000	
        0.5990000000	       36.4066178515	      609.3298298006	       40.3555503533	        0.1988394985	        0.0000558755	       -0.3004071309	      -18.2373537211	        6.9111430849	      -34.6218047178	        0.0000000038	        0.0000000000	       -0.0000011174	        0.2029003485	       -0.0000795827	        0.4543649521	       -0.0000002763	        0.0000000608	       -0.0000001834	        0.0000000000	        0.0000000000	       -0.0000000000	        0.2076431961	        0.0000770316	        1.3583900146	       -0.0000000000	       -0.0000000000	       -0.0000000000	
        0.6000000000	       36.4781546485	      613.5930469021	       41.3658340847	        0.1988394985	        0.0000558755	       -0.3004071309	      -18.5185999772	        7.0217153773	      -34.8296964002	       -0.0000000554	        0.0000000000	       -0.0000017364	        0.2029003485	       -0.0000795827	        0.4543649521	       -0.0000004947	        0.0000001092	       -0.0000003262	        0.0000000000	        0.0000000000	       -0.0000000000	        0.2076431961	        0.0000770316	        1.3583900146	       -0.0000000000	       -0.0000000000	       -0.0000000000	
        0.6010000000	       36.5432410746	      617.8942157721	       42.3918359986	        0.1988394985	        0.0000558755	       -0.3004071309	      -18.7983631568	        7.1342250045	      -35.0396057142	       -0.0000001374	        0.0000000000	       -0.0000024882	        0.2029003485	       -0.0000795827	        0.4543649521	       -0.0000007709	        0.0000001704	       -0.0000005065	        0.0000000000	        0.0000000000	       -0.0000000000	        0.2076431961	        0.0000770316	        1.3583900146	       -0.0000000000	        0.0000000000	       -0.0000000000	
        0.6020000000	       36.6007469172	      622.2318455870	       43.4318091696	        0.1988394985	        0.0000558755	       -0.3004071309	      -19.0767679142	        7.2480979754	      -35.2512352041	       -0.0000002456	        0.0000000000	       -0.0000033661	        0.2029003485	       -0.0000795827	        0.4543649521	       -0.0000011067	        0.0000002449	       -0.0000007254	       -0.0000000000	        0.0000000000	        0.0000000000	        0.2076431961	        0.0000770316	        1.3583900146	       -0.0000000000	        0.0000000000	       -0.0000000000	
        0.6030000000	       36.6490189455	      626.6023847856	       44.4850237963	        0.1988394985	        0.0000558755	       -0.3004071309	      -19.3540472240	        7.3625856031	      -35.4641444905	       -0.0000003823	        0.0000000000	       -0.0000043489	        0.2029003485	       -0.0000795827	        0.4543649521	       -0.0000014992	        0.0000003320	       -0.0000009810	       -0.0000000000	        0.0000000000	        0.0000000000	        0.2076431961	        0.0000770316	        1.3583900146	        0.0000000000	        0.0000000000	        0.0000000000	
        0.6040000000	       36.6874797554	      630.9983996342	       45.5520905332	        0.1988394985	        0.0000558755	       -0.3004071309	      -19.6302111366	        7.4770476494	      -35.6778638659	       -0.0000005485	        0.0000000000	       -0.0000053953	        0.2029003485	       -0.0000795827	        0.4543649521	       -0.0000019391	        0.0000004297	       -0.0000012669	       -0.0000000000	        0.0000000000	        0.0000000000	        0.2076431961	        0.0000770316	        1.3583900146	        0.0000000000	        0.0000000000	        0.0000000000	
        0.6050000000	       36.7170605501	      635.4069559883	       46.6337971179	        0.1988394985	        0.0000558755	       -0.3004071309	      -19.9049601016	        7.5908953334	      -35.8917963882	       -0.0000007426	        0.0000000000	       -0.0000064389	        0.2029003485	       -0.0000795827	        0.4543649521	       -0.0000024082	        0.0000005340	       -0.0000015712	       -0.0000000000	        0.0000000000	        0.0000000000	        0.2076431961	        0.0000770316	        1.3583900146	        0.0000000000	        0.0000000000	        0.0000000000	
        0.6060000000	       36.7391889252	      639.8109373937	       47.7297752261	        0.1988394985	        0.0000558755	       -0.3004071309	      -20.1779723868	        7.7035071734	      -36.1052531561	       -0.0000009601	        0.0000000000	       -0.0000073820	        0.2029003485	       -0.0000795827	        0.4543649521	       -0.0000028770	        0.0000006383	       -0.0000018745	       -0.0000000000	        0.0000000000	        0.0000000000	        0.2076431961	        0.0000770316	        1.3583900146	        0.0000000000	        0.0000000000	        0.0000000000	
        0.6070000000	       36.7551511080	      644.1929885390	       48.8386245375	        0.1988394985	        0.0000558755	       -0.3004071309	      -20.4493436558	        7.8143635020	      -36.3175883253	       -0.0000011919	        0.0000000000	       -0.0000080898	        0.2029003485	       -0.0000795827	        0.4543649521	       -0.0000033021	        0.0000007331	       -0.0000021483	       -0.0000000000	        0.0000000000	        0.0000000000	        0.2076431961	        0.0000770316	        1.3583900146	        0.0000000000	        0.0000000000	        0.0000000000	
        0.6080000000	       36.7662035298	      648.5391029386	       49.9590450428	        0.1988394985	        0.0000558755	       -0.3004071309	      -20.7196365613	        7.9232284845	      -36.5281487110	       -0.0000014234	        0.0000000000	       -0.0000083856	        0.2029003485	       -0.0000795827	        0.4543649521	       -0.0000036235	        0.0000008051	       -0.0000023533	       -0.0000000000	        0.0000000000	        0.0000000000	        0.2076431961	        0.0000770316	        1.3583900146	        0.0000000000	        0.0000000000	        0.0000000000	
        0.6090000000	       36.7735558305	      652.8402815372	       51.0896438878	        0.1988394985	        0.0000558755	       -0.3004071309	      -20.9894451805	        8.0300728654	      -36.7362704923	       -0.0000016330	        0.0000000000	       -0.0000080471	        0.2029003485	       -0.0000795827	        0.4543649521	       -0.0000037624	        0.0000008368	       -0.0000024380	       -0.0000000000	        0.0000000000	        0.0000000000	        0.2076431961	        0.0000770316	        1.3583900146	        0.0000000000	        0.0000000000	        0.0000000000	
        0.6100000000	       36.7781552309	      657.0924664329	       52.2275856538	        0.1988394985	        0.0000558755	       -0.3004071309	      -21.2590946782	        8.1348259490	      -36.9416404637	       -0.0000017911	        0.0000000000	       -0.0000068052	        0.2029003485	       -0.0000795827	        0.4543649521	       -0.0000036196	        0.0000008063	       -0.0000023377	       -0.0000000000	        0.0000000000	        0.0000000000	        0.2076431961	        0.0000770316	        1.3583900146	        0.0000000000	        0.0000000000	        0.0000000000	
        0.6110000000	       36.7807568937	      661.2951865195	       53.3687599343	        0.1988394985	        0.0000558755	       -0.3004071309	      -21.5287414499	        8.2373408784	      -37.1444654830	       -0.0000018586	        0.0000000000	       -0.0000043469	        0.2029003485	       -0.0000795827	        0.4543649521	       -0.0000030749	        0.0000006868	       -0.0000019740	       -0.0000000000	        0.0000000000	        0.0000000000	        0.2076431961	        0.0000770316	        1.3583900146	        0.0000000000	        0.0000000000	        0.0000000000	
        0.6120000000	       36.7821479589	      665.4485587267	       54.5095471123	        0.1988394985	        0.0000558755	       -0.3004071309	      -21.7985351302	        8.3375269783	      -37.3450348519	       -0.0000017864	        0.0000000000	       -0.0000003232	        0.2029003485	       -0.0000795827	        0.4543649521	       -0.0000019884	        0.0000004473	       -0.0000012559	       -0.0000000000	        0.0000000000	        0.0000000000	        0.2076431961	        0.0000770316	        1.3583900146	        0.0000000000	        0.0000000000	        0.0000000000	
